<svg width="12" height="12" viewBox="0 0 12 12" fill="none" xmlns="http://www.w3.org/2000/svg">
    <path d="M11.8954 11.388L8.97919 8.47184C9.76145 7.57251 10.2351 6.39911 10.2351 5.11663C10.2351 2.29357 7.93883 0 5.11843 0C2.29537 0 0.00180054 2.29623 0.00180054 5.11663C0.00180054 7.93703 2.29803 10.2333 5.11843 10.2333C6.40091 10.2333 7.57431 9.75965 8.47364 8.97738L11.3898 11.8936C11.459 11.9627 11.5521 12 11.6426 12C11.7331 12 11.8262 11.9654 11.8954 11.8936C12.0337 11.7552 12.0337 11.5264 11.8954 11.388ZM0.717543 5.11663C0.717543 2.69002 2.69182 0.718404 5.11577 0.718404C7.54238 0.718404 9.514 2.69268 9.514 5.11663C9.514 7.54058 7.54238 9.51752 5.11577 9.51752C2.69182 9.51752 0.717543 7.54324 0.717543 5.11663Z" fill="#D6D9E4"/>
</svg>
