<svg width="40" height="40" viewBox="0 0 40 40" fill="none" xmlns="http://www.w3.org/2000/svg">
    <circle cx="20" cy="20" r="20" fill="#613EEA"/>
    <g clip-path="url(#clip0)">
        <path d="M26.5714 26.2851C26.931 26.2851 27.2427 26.1664 27.5076 25.9319L22.9745 21.3987C22.8658 21.4766 22.7603 21.5523 22.6608 21.6243C22.3215 21.8742 22.0462 22.0693 21.8348 22.209C21.6234 22.3491 21.3422 22.4919 20.9911 22.6376C20.6397 22.7836 20.3125 22.8563 20.0088 22.8563H19.9999H19.9911C19.6874 22.8563 19.3601 22.7836 19.0088 22.6376C18.6575 22.4919 18.3763 22.3491 18.1651 22.209C17.9537 22.0693 17.6785 21.8743 17.3391 21.6243C17.2445 21.555 17.1396 21.4789 17.0262 21.3975L12.4923 25.9319C12.7572 26.1664 13.069 26.2851 13.4287 26.2851H26.5714Z" fill="white"/>
        <path d="M12.9019 18.5445C12.5627 18.3183 12.2619 18.0593 12 17.7676V24.6645L15.9954 20.6691C15.1961 20.1111 14.1662 19.4037 12.9019 18.5445Z" fill="white"/>
        <path d="M27.1072 18.5445C25.8911 19.3676 24.8575 20.0762 24.0062 20.6707L28.0001 24.6647V17.7676C27.744 18.0534 27.4464 18.3123 27.1072 18.5445Z" fill="white"/>
        <path d="M26.5714 13.7139H13.4287C12.9702 13.7139 12.6176 13.8687 12.3707 14.178C12.1236 14.4875 12.0002 14.8746 12.0002 15.3387C12.0002 15.7137 12.1639 16.1199 12.4912 16.5576C12.8185 16.9951 13.1668 17.3388 13.5358 17.5887C13.7382 17.7317 14.3483 18.1559 15.3663 18.8611C15.9158 19.2419 16.3937 19.5738 16.8043 19.8602C17.1544 20.1041 17.4562 20.3154 17.7055 20.4906C17.7341 20.5107 17.7791 20.5429 17.8388 20.5856C17.9032 20.6318 17.9846 20.6905 18.085 20.763C18.2785 20.9029 18.4392 21.016 18.5672 21.1024C18.695 21.1888 18.8498 21.2853 19.0315 21.3925C19.213 21.4996 19.3843 21.5801 19.545 21.6336C19.7057 21.6871 19.8545 21.7139 19.9914 21.7139H20.0002H20.0091C20.146 21.7139 20.2948 21.6871 20.4556 21.6336C20.6162 21.5801 20.7873 21.4997 20.969 21.3925C21.1505 21.2853 21.3051 21.1886 21.4333 21.1024C21.5613 21.016 21.722 20.9029 21.9155 20.763C22.0157 20.6905 22.0972 20.6318 22.1615 20.5857C22.2213 20.5429 22.2662 20.5109 22.295 20.4906C22.4892 20.3555 22.7918 20.1452 23.1986 19.8627C23.9388 19.3484 25.0289 18.5914 26.4736 17.5887C26.9081 17.2853 27.2711 16.919 27.5628 16.4906C27.854 16.0622 28 15.6127 28 15.1425C28 14.7496 27.8585 14.4134 27.576 14.1334C27.2932 13.8538 26.9583 13.7139 26.5714 13.7139Z" fill="white"/>
    </g>
    <defs>
        <clipPath id="clip0">
            <rect width="16" height="16" fill="white" transform="translate(12 12)"/>
        </clipPath>
    </defs>
</svg>
