<svg width="57" height="57" viewBox="0 0 57 57" fill="none" xmlns="http://www.w3.org/2000/svg">
    <g clip-path="url(#clip0)">
        <path d="M22.8231 20.0181L19.9263 37.0177H24.5593L27.4585 20.0181H22.8231Z" fill="white"/>
        <path d="M16.0416 20.037L11.5039 31.6303L11.0201 29.8798C10.1252 27.7706 7.58468 24.7415 4.60205 22.8326L8.75128 37.0093L13.6536 37.0009L20.9499 20.0334L16.0416 20.037Z" fill="white"/>
        <path d="M9.26128 21.2536C8.99197 20.2181 8.21146 19.9095 7.24267 19.8726H0.0595811L0 20.211C5.58989 21.567 9.28869 24.8345 10.8235 28.7632L9.26128 21.2536Z" fill="white"/>
        <path d="M36.8485 23.2771C38.3643 23.2533 39.463 23.5845 40.3162 23.9277L40.7344 24.1243L41.3612 20.4399C40.4437 20.0955 39.0054 19.7261 37.2108 19.7261C32.6326 19.7261 29.4057 22.0319 29.3806 25.3362C29.3509 27.7779 31.6793 29.1411 33.4381 29.9549C35.2434 30.7891 35.8488 31.3194 35.8404 32.0641C35.8261 33.2021 34.4009 33.724 33.0699 33.724C31.2145 33.724 30.2291 33.4678 28.7074 32.8339L28.1104 32.5622L27.4586 36.3671C28.5429 36.8425 30.5437 37.2512 32.6207 37.2727C37.4908 37.2727 40.6558 34.9943 40.6891 31.4635C40.7094 29.5319 39.4737 28.0579 36.7961 26.8484C35.1755 26.0595 34.1841 25.5352 34.1936 24.7392C34.1936 24.0326 35.0349 23.2771 36.8485 23.2771Z" fill="white"/>
        <path d="M53.2512 20.0371H49.6715C48.5598 20.0371 47.7328 20.3398 47.2442 21.448L40.365 37.0272H45.2304C45.2304 37.0272 46.024 34.9324 46.2039 34.4736C46.7366 34.4736 51.4637 34.4807 52.137 34.4807C52.2752 35.0742 52.7018 37.0272 52.7018 37.0272H57L53.2512 20.0371ZM47.5374 30.9941C47.9187 30.0181 49.3832 26.2431 49.3832 26.2431C49.3582 26.2895 49.7609 25.26 50.0004 24.6201L50.3126 26.0858C50.3126 26.0858 51.2004 30.1444 51.3863 30.9941H47.5374Z" fill="white"/>
    </g>
    <defs>
        <clipPath id="clip0">
            <rect width="57" height="57" fill="white"/>
        </clipPath>
    </defs>
</svg>
