<svg width="32" height="32" viewBox="0 0 32 32" fill="none" xmlns="http://www.w3.org/2000/svg">
    <path d="M7.99998 13.3333C6.53331 13.3333 5.33331 14.5333 5.33331 15.9999C5.33331 17.4666 6.53331 18.6666 7.99998 18.6666C9.46665 18.6666 10.6666 17.4666 10.6666 15.9999C10.6666 14.5333 9.46665 13.3333 7.99998 13.3333ZM24 13.3333C22.5333 13.3333 21.3333 14.5333 21.3333 15.9999C21.3333 17.4666 22.5333 18.6666 24 18.6666C25.4666 18.6666 26.6666 17.4666 26.6666 15.9999C26.6666 14.5333 25.4666 13.3333 24 13.3333ZM16 13.3333C14.5333 13.3333 13.3333 14.5333 13.3333 15.9999C13.3333 17.4666 14.5333 18.6666 16 18.6666C17.4666 18.6666 18.6666 17.4666 18.6666 15.9999C18.6666 14.5333 17.4666 13.3333 16 13.3333Z" fill="white"/>
</svg>
