<svg width="40" height="40" viewBox="0 0 40 40" fill="none" xmlns="http://www.w3.org/2000/svg">
    <circle cx="20" cy="20" r="20" fill="#613EEA"/>
    <g clip-path="url(#clip0)">
        <path d="M20.2762 19.7272H23.5818C23.5478 18.5267 23.2966 17.3618 22.8462 16.2822C22.0152 16.5235 21.1534 16.6563 20.2762 16.6798V19.7272Z" fill="white"/>
        <path d="M23.1502 15.6056C23.9587 15.3267 24.7326 14.9451 25.4496 14.4545L25.6299 14.3164C24.311 13.0105 22.5417 12.1606 20.5789 12.0195L20.4359 12.1358C21.5994 13.0991 22.5193 14.2833 23.1502 15.6056Z" fill="white"/>
        <path d="M20.2762 12.7256V16.1272C21.0745 16.1046 21.8586 15.9856 22.6157 15.773C22.056 14.6244 21.2653 13.5884 20.2762 12.7256Z" fill="white"/>
        <path d="M23.4669 23.6522C24.3311 23.9647 25.1567 24.3888 25.9201 24.933L26.1598 25.1125C27.2576 23.7914 27.9376 22.1124 28 20.2793H24.134C24.1028 21.4494 23.8742 22.5867 23.4669 23.6522Z" fill="white"/>
        <path d="M14.5504 14.4545C15.2674 14.9451 16.0416 15.3264 16.8498 15.6056C17.4807 14.2836 18.4007 13.0994 19.5644 12.1358L19.4214 12.0195C17.4542 12.1609 15.681 13.0143 14.361 14.325L14.5504 14.4545Z" fill="white"/>
        <path d="M19.724 12.7256C18.7347 13.5884 17.9442 14.6246 17.3846 15.7727C18.1417 15.9853 18.9258 16.1046 19.724 16.1269V12.7256Z" fill="white"/>
        <path d="M15.8663 20.2793H12C12.0627 22.1124 12.7424 23.7911 13.8402 25.1125L14.0749 24.9372C14.8411 24.3913 15.6683 23.9658 16.5339 23.6527C16.1258 22.5864 15.8975 21.4492 15.8663 20.2793Z" fill="white"/>
        <path d="M16.6253 16.112C15.7868 15.8182 14.9839 15.4203 14.2387 14.9107L13.9797 14.7334C12.801 16.0783 12.0652 17.8189 12 19.7276H15.8663C15.8997 18.4685 16.1584 17.246 16.6253 16.112Z" fill="white"/>
        <path d="M16.4185 19.7276H19.724V16.6802C18.8463 16.6568 17.9843 16.524 17.1538 16.2832C16.7035 17.3625 16.4522 18.5271 16.4185 19.7276Z" fill="white"/>
        <path d="M19.5368 27.8466C18.3167 26.8264 17.3719 25.5663 16.7451 24.1631C15.919 24.4596 15.1296 24.8638 14.4004 25.3835L14.2102 25.5257C15.5283 26.907 17.333 27.8184 19.3471 27.9819L19.5368 27.8466Z" fill="white"/>
        <path d="M19.724 23.0508V20.2793H16.4185C16.4497 21.389 16.6684 22.4672 17.0571 23.4766C17.9167 23.2176 18.8112 23.0751 19.724 23.0508Z" fill="white"/>
        <path d="M25.5943 25.3796C24.8679 24.8619 24.0807 24.4588 23.256 24.1631C22.6287 25.5696 21.6827 26.8308 20.4637 27.8474L20.6529 27.9819C22.6671 27.8184 24.472 26.9073 25.7901 25.5259L25.5943 25.3796Z" fill="white"/>
        <path d="M25.7735 14.9016C25.0225 15.4157 24.2155 15.8157 23.3745 16.1109C23.8416 17.2451 24.1003 18.468 24.134 19.7273H28.0003C27.9349 17.8125 27.1949 16.0673 26.0099 14.7207L25.7735 14.9016Z" fill="white"/>
        <path d="M19.724 27.281V23.6035C18.8849 23.627 18.063 23.757 17.2717 23.9901C17.8357 25.235 18.6654 26.3577 19.724 27.281Z" fill="white"/>
        <path d="M23.5818 20.2793H20.2762V23.0508C21.1893 23.0751 22.0842 23.2176 22.944 23.4766C23.3316 22.4674 23.5503 21.3892 23.5818 20.2793Z" fill="white"/>
        <path d="M22.7294 23.9901C21.9381 23.757 21.1156 23.6273 20.2762 23.6035V27.2821C21.334 26.3618 22.1645 25.2381 22.7294 23.9901Z" fill="white"/>
    </g>
    <defs>
        <clipPath id="clip0">
            <rect width="16" height="16" fill="white" transform="translate(12 12)"/>
        </clipPath>
    </defs>
</svg>
