<svg width="26" height="24" viewBox="0 0 26 24" fill="none" xmlns="http://www.w3.org/2000/svg">
    <rect x="1" y="9" width="24" height="14" rx="3" stroke="white"/>
    <line x1="9.5" y1="9" x2="16.5" y2="9" stroke="#613EEA" stroke-linecap="round"/>
    <line x1="4.5" y1="9" x2="9.5" y2="9" stroke="white" stroke-linecap="round"/>
    <line x1="16.5" y1="9" x2="21.5" y2="9" stroke="white" stroke-linecap="round"/>
    <path d="M13 9L13 2" stroke="white" stroke-linecap="round"/>
    <path d="M10.6464 2.64645C10.4512 2.84171 10.4512 3.15829 10.6464 3.35355C10.8417 3.54882 11.1583 3.54882 11.3536 3.35355L10.6464 2.64645ZM14.6464 3.35355C14.8417 3.54882 15.1583 3.54882 15.3536 3.35355C15.5488 3.15829 15.5488 2.84171 15.3536 2.64645L14.6464 3.35355ZM12.9293 1.07071L12.5757 0.717157L12.9293 1.07071ZM13.0707 1.07071L12.7172 1.42426L13.0707 1.07071ZM11.3536 3.35355L13.2828 1.42426L12.5757 0.717157L10.6464 2.64645L11.3536 3.35355ZM12.7172 1.42426L14.6464 3.35355L15.3536 2.64645L13.4243 0.717157L12.7172 1.42426ZM13.2828 1.42426C13.1266 1.58047 12.8734 1.58047 12.7172 1.42426L13.4243 0.717157C13.19 0.482844 12.8101 0.482842 12.5757 0.717157L13.2828 1.42426Z" fill="white"/>
    <circle cx="13" cy="16" r="3.5" stroke="white"/>
    <circle cx="5" cy="16" r="1" fill="white"/>
    <circle cx="21" cy="16" r="1" fill="white"/>
</svg>
